HIERARCHY
ROOT Hips
{
  OFFSET -187.679 86.5976 -156.378
  CHANNELS 6 Xposition Yposition Zposition Zrotation Xrotation Yrotation
  JOINT LeftUpLeg
  {
    OFFSET 8.64259 1.95398 -2.38835
    CHANNELS 3 Zrotation Xrotation Yrotation
    JOINT LeftLeg
    {
      OFFSET 43.7702 0 0
      CHANNELS 3 Zrotation Xrotation Yrotation
      JOINT LeftFoot
      {
        OFFSET 40.6238 0 0
        CHANNELS 3 Zrotation Xrotation Yrotation
        JOINT LeftToeBase
        {
          OFFSET 12.7242 0 0
          CHANNELS 3 Zrotation Xrotation Yrotation
          End Site
          {
            OFFSET 0 0 0
          }
        }
      }
    }
  }
  JOINT RightUpLeg
  {
    OFFSET -8.2249 1.95398 -2.59336
    CHANNELS 3 Zrotation Xrotation Yrotation
    JOINT RightLeg
    {
      OFFSET 43.5653 0 0
      CHANNELS 3 Zrotation Xrotation Yrotation
      JOINT RightFoot
      {
        OFFSET 40.6238 0 0
        CHANNELS 3 Zrotation Xrotation Yrotation
        JOINT RightToeBase
        {
          OFFSET 12.7242 0 0
          CHANNELS 3 Zrotation Xrotation Yrotation
          End Site
          {
            OFFSET 0 0 0
          }
        }
      }
    }
  }
  JOINT Spine
  {
    OFFSET 0.165834 0.87714 6.61349
    CHANNELS 3 Zrotation Xrotation Yrotation
    JOINT Spine1
    {
      OFFSET 7.38963 1.71661e-005 0
      CHANNELS 3 Zrotation Xrotation Yrotation
      JOINT Spine2
      {
        OFFSET 11.9445 1.14441e-005 0
        CHANNELS 3 Zrotation Xrotation Yrotation
        JOINT Spine3
        {
          OFFSET 14.7254 4.19617e-005 0
          CHANNELS 3 Zrotation Xrotation Yrotation
          JOINT Spine4
          {
            OFFSET 10.9679 0 0
            CHANNELS 3 Zrotation Xrotation Yrotation
            JOINT RightShoulder
            {
              OFFSET 2.46616 -1.6653 3.69651
              CHANNELS 3 Zrotation Xrotation Yrotation
              JOINT RightArm
              {
                OFFSET 13.0012 0 0
                CHANNELS 3 Zrotation Xrotation Yrotation
                JOINT RightForeArm
                {
                  OFFSET 28.7848 1.52588e-005 0
                  CHANNELS 3 Zrotation Xrotation Yrotation
                  JOINT RightHand
                  {
                    OFFSET 26.5688 1.52588e-005 0
                    CHANNELS 3 Zrotation Xrotation Yrotation
                    End Site
                    {
                      OFFSET 0 0 0
                    }
                  }
                }
              }
            }
            JOINT LeftShoulder
            {
              OFFSET 2.38034 -1.29275 -3.7523
              CHANNELS 3 Zrotation Xrotation Yrotation
              JOINT LeftArm
              {
                OFFSET 16.3182 6.10352e-005 0
                CHANNELS 3 Zrotation Xrotation Yrotation
                JOINT LeftForeArm
                {
                  OFFSET 27.0901 0 0
                  CHANNELS 3 Zrotation Xrotation Yrotation
                  JOINT LeftHand
                  {
                    OFFSET 24.5451 1.52588e-005 0
                    CHANNELS 3 Zrotation Xrotation Yrotation
                    End Site
                    {
                      OFFSET 0 0 0
                    }
                  }
                }
              }
            }
            JOINT Neck
            {
              OFFSET 5.0226 -0.0266342 0
              CHANNELS 3 Zrotation Xrotation Yrotation
              JOINT Head
              {
                OFFSET 6.69363 2.86102e-005 0
                CHANNELS 3 Zrotation Xrotation Yrotation
                End Site
                {
                  OFFSET 0 0 0
                }
              }
            }
          }
        }
      }
    }
  }
}
MOTION
Frames:	12
Frame Time:	0.0416667
-47.6113 105.417 33.9077 87.7346 27.1451 88.9299 -175.61 40.67 92.8575 -51.5608 10.4824 1.67684 71.2763 6.10687 1.77146 7.23575 -8.60969 -0.502217 173.493 -5.80252 87.1485 -24.7052 -12.6249 -2.2331 55.4301 1.17457 -0.274162 20.9801 -2.23224 2.76604 1.58148 7.83886 -89.1729 11.1717 3.53168 1.30076 -0.495004 3.5855 1.14389 -23.0537 2.97746 2.30264 -3.04107 2.97747 2.30263 93.7558 -33.6345 -98.1481 -3.09361 3.3623 -16.6641 -26.4371 -8.26685 -44.8789 -6.26573 -0.0957188 -3.51421 -83.0266 -28.5928 86.6965 8.15161 -1.75196 4.57302 12.2694 -3.89975 -19.8789 9.46189 0.820476 4.48669 -17.9189 3.00783 -4.20959 6.02607 2.98539 -0.21304 
-35.538 109.656 22.7448 86.5153 21.0566 92.1122 -177.075 28.8588 96.9418 -18.6483 6.2354 2.84572 71.6798 7.07369 -0.543897 19.101 -5.51991 3.88205 168.673 -10.5998 81.0824 -31.1312 -3.65891 -0.00616024 55.6193 1.12842 0.474087 20.8016 -1.8772 1.71736 2.2194 7.63056 -89.4624 11.6128 4.66672 0.57914 -0.049757 4.68769 0.37273 -22.6432 4.27646 1.95733 -2.63053 4.27648 1.95733 94.963 -30.0834 -96.6506 -5.33286 -1.44713 -11.8127 -29.9229 -3.98928 -59.8696 -6.63104 -0.209592 -1.46219 -80.8955 -29.2456 91.0019 6.87931 3.47905 20.0523 12.3535 -3.69369 -20.638 3.15678 0.211062 1.76131 -27.2342 2.76263 1.41952 11.6705 2.64251 -2.52011 
-22.996 109.048 10.8318 91.3637 17.6934 93.9242 -176.61 18.3685 98.0495 -7.78596 4.79091 7.13198 73.7204 7.33998 -1.99148 21.9769 -6.67411 9.7761 162.389 -20.4126 72.8782 -38.5293 -10.3219 -2.94883 55.7659 0.707789 1.19955 23.248 -1.84053 2.89242 2.56269 7.71844 -90.1911 11.4676 5.0096 -0.889074 -0.194154 4.9656 -1.10923 -22.8067 5.0446 0.661558 -2.79409 5.04458 0.661549 95.7265 -29.5347 -95.2217 -5.91548 -4.88521 -4.40285 -31.5099 0.64871 -72.29 -5.6602 -0.247817 0.187288 -77.9748 -26.4552 96.7817 0.410719 1.73774 31.202 12.3425 -4.08264 -18.2337 0.0955727 0.0472879 2.4875 -36.6875 2.77398 3.38543 15.5904 3.19918 -1.7329 
-11.1733 103.155 -0.259631 92.8876 16.8685 95.871 -172.571 15.354 100.515 -12.5954 7.96558 1.82944 69.6415 7.08119 -1.85172 17.8179 -6.63693 5.06273 158.84 -25.6646 66.3219 -44.5992 -7.34738 -6.36723 62.8402 -1.65622 0.243163 25.5523 -1.40029 2.83756 2.61954 7.42398 -90.6323 12.0733 4.90914 -1.80009 0.410046 4.82517 -2.0148 -22.1992 5.2226 -0.237678 -2.18652 5.22262 -0.237672 95.6607 -31.8875 -94.8574 -2.26578 -6.10698 8.56281 -29.5048 4.04836 -80.419 -5.54412 -0.36921 3.04845 -76.1582 -24.982 100.573 -2.27516 -1.47549 36.5858 13.0573 -2.50504 -17.2645 2.62653 0.325802 5.24183 -38.5103 2.96616 1.85957 15.4001 3.36373 -0.430859 
-1.62602 96.8441 -9.8694 92.2729 20.8526 91.6526 -170.972 27.2818 93.5489 -45.0308 18.1477 -0.24137 72.7754 6.7494 1.42814 10.3753 -8.70762 2.22974 162.448 -22.1772 66.97 -60.5649 4.57543 -9.5947 67.4708 -3.92535 -1.16813 24.6527 -1.9587 4.02355 1.96555 7.54735 -89.9459 11.8085 3.93542 -0.281768 0.143717 3.91924 -0.454978 -22.439 3.83768 0.915712 -2.4263 3.83767 0.915711 95.5668 -34.6049 -94.4957 12.6442 -7.10591 16.4901 -37.874 1.16836 -77.5511 -2.85712 -0.18754 3.22622 -78.9526 -33.287 95.0595 -6.75966 -3.66416 31.5525 12.3623 -6.86475 -12.0939 2.55547 0.296536 4.64694 -29.4119 3.38013 2.12234 12.4177 3.54722 -1.17411 
5.15084 95.1771 -16.6882 93.6922 24.4069 82.6949 -170.282 20.0241 85.2601 -48.2109 17.4054 -2.61946 80.7089 10.1033 -0.203359 10.8903 -8.65306 2.57039 176.612 -3.4944 74.7355 -87.5924 7.81626 -9.84557 69.1632 -4.49007 -2.53542 21.7631 -2.87827 5.00791 0.966025 7.97104 -88.7213 10.8903 2.51409 2.2943 -0.780042 2.6126 2.18144 -23.3094 1.70873 2.94355 -3.29672 1.70873 2.94355 93.3792 -41.8211 -96.9772 29.187 -12.3568 13.5559 -35.9658 -9.72738 -56.6123 -4.66837 -0.241706 1.6042 -83.0978 -44.0361 88.6858 -10.8806 2.5302 9.13845 10.3228 -12.0982 -11.5047 1.68561 0.193758 3.73893 -27.382 5.34967 1.97255 9.56287 5.47861 -1.55702 
11.9019 97.3568 -22.4086 94.3331 27.7743 84.1254 -172.371 10.7247 85.6175 -42.0225 17.7964 0.066954 81.9973 10.4127 -0.373396 11.1989 -8.9625 3.43286 -177.556 13.7699 85.9142 -87.3864 10.866 -7.24713 70.0341 -4.44349 -1.92041 24.1004 -2.57003 5.5258 0.130368 7.99566 -88.898 10.8718 0.768899 2.11904 -0.800656 0.861406 2.08316 -23.3214 0.0966986 2.25208 -3.3087 0.0967156 2.25208 91.997 -43.7714 -98.8805 40.5005 -19.9113 12.546 -29.4857 -17.3131 -39.7528 -5.15505 -0.157915 -1.72664 -86.9423 -48.8997 83.3496 -7.76921 4.08498 -11.5483 14.4491 0.721188 -25.509 3.22249 0.298646 3.66219 -29.0525 6.85418 3.65219 10.291 7.21821 -1.5998 
19.474 100.164 -28.4655 95.7953 34.3417 86.4515 -174.474 -0.265671 85.9761 -34.0332 20.8445 6.67626 76.7876 7.64379 0.268084 17.641 -6.86761 5.38112 -179.415 22.5779 93.684 -60.1167 15.9913 -3.46371 70.664 -4.36991 -1.35043 22.6989 -2.71014 5.07833 -0.719213 8.32729 -89.3876 10.2246 -1.15306 1.31451 -1.44653 -1.09411 1.36397 -23.9829 -1.49481 0.907204 -3.97022 -1.49482 0.9072 90.9335 -45.53 -100.209 44.3036 -19.7077 15.1348 -25.6689 -17.3884 -33.9293 -5.66999 -0.104257 -3.14531 -87.6835 -43.5068 81.1845 -2.94216 11.0029 -35.5494 13.3564 -1.91447 -30.0714 4.21125 0.205223 0.885265 -26.7119 7.95604 1.69097 10.8952 8.31305 0.58935 
27.7516 100.693 -35.354 96.4277 41.226 88.6325 -173.025 -8.37164 90.3119 -30.4056 28.171 10.0954 73.6327 6.76099 0.929014 15.6374 -6.29442 2.18611 179.74 20.9024 95.267 -22.4485 11.5203 0.755481 65.1342 -3.68294 0.222617 24.4694 -1.8461 3.53432 -1.35934 8.50163 -89.8674 9.8761 -2.64914 0.477959 -1.79229 -2.62555 0.594161 -24.3489 -2.67023 -0.340895 -4.33622 -2.67024 -0.340901 90.8745 -45.2118 -100.381 46.8399 -18.3443 17.847 -22.2403 -15.1634 -29.6016 -4.9037 -0.0522951 -4.26774 -87.4504 -33.1136 79.164 -4.55778 6.61943 -57.9741 13.9594 -0.547486 -28.0372 1.73259 -0.140524 -5.21575 -25.5025 8.08576 -2.27951 10.9873 8.34617 2.75278 
36.8639 97.9803 -42.7242 98.206 46.4026 87.2009 -168.256 -16.2993 96.6415 -29.7701 36.4226 10.06 75.1892 8.66763 1.82933 19.2292 -4.4076 1.5197 179.178 19.5904 94.651 -7.05059 9.98398 2.09194 62.8415 -3.42219 0.0295556 28.0021 -0.392775 0.991223 -1.92232 8.60924 -89.9635 9.66381 -3.81572 0.369685 -2.00163 -3.79575 0.537495 -24.5806 -3.75014 -0.795856 -4.56794 -3.75015 -0.795853 90.8559 -45.5807 -100.324 46.9077 -19.2861 19.2318 -21.7375 -15.8738 -28.8681 -3.40046 0.00351062 -6.08173 -86.8043 -25.3946 78.3694 -10.0862 -2.089 -73.3038 16.6969 3.24891 -29.6548 3.60816 -0.234985 -6.99978 -22.0825 7.58075 -6.16528 9.29574 7.95594 5.81138 
46.3533 94.9867 -51.0154 101.157 50.7644 84.3266 -163.874 -23.4984 102.216 -31.0018 43.2327 13.0604 70.1553 6.32247 3.04317 31.2855 0.833083 0.211179 176.317 26.4324 93.171 -26.8538 10.1952 3.78225 58.4367 0.71204 -1.10113 23.4346 -1.94323 3.22036 -2.3017 8.59928 -90.1555 9.68164 -4.65868 0.0557482 -1.98099 -4.65168 0.261176 -24.5793 -4.45963 -1.34982 -4.56669 -4.45964 -1.34982 90.7437 -47.5141 -100.044 42.2198 -15.3936 17.4954 -21.427 -17.6249 -25.4484 -4.94256 -0.00359681 -5.53995 -87.7 -29.0161 77.598 -16.0449 -5.94959 -78.8674 20.3806 5.65954 -41.8123 5.87311 -0.116883 -4.7472 -16.9405 6.12314 -2.97374 6.84911 6.45394 3.92722 
55.3916 92.8538 -58.9761 100.835 49.8034 86.7174 -164.371 -21.1007 104.206 -44.7223 40.6089 14.5041 62.6179 2.26996 2.03491 22.2879 -0.638233 -4.92396 172.121 31.1286 95.9012 -48.289 5.96726 5.80847 64.477 -1.22466 -1.98143 19.4414 -2.30813 2.22187 -1.77534 8.44196 -90.7819 9.97069 -3.89351 -1.2327 -1.69485 -3.944 -1.05992 -24.262 -3.34296 -2.34682 -4.24935 -3.34297 -2.34682 89.1172 -47.5445 -102.595 37.3988 -9.20056 10.7291 -16.3811 -10.0744 -10.7562 -7.92623 -0.114324 -3.53265 -89.9485 -34.5414 75.0827 -18.7669 -2.25509 -71.3017 21.7933 1.53745 -57.3853 6.89787 0.0551973 -2.43679 -12.9891 4.1308 1.57282 6.37595 4.24663 1.9451 
